<svg version="1.1" xmlns="http://www.w3.org/2000/svg" viewBox="0 0 2018.5872395833333 843.5774739583333" width="4037.1744791666665" height="1687.1549479166665">
  <!-- svg-source:excalidraw -->
  
  <defs>
    <style>
      @font-face {
        font-family: "Virgil";
        src: url("https://excalidraw.com/Virgil.woff2");
      }
      @font-face {
        font-family: "Cascadia";
        src: url("https://excalidraw.com/Cascadia.woff2");
      }
    </style>
  </defs>
  <rect x="0" y="0" width="2018.5872395833333" height="843.5774739583333" fill="#ffffff"></rect><g stroke-linecap="round" transform="translate(76.31684027777783 174.36352539062466) rotate(0 251.4264322916667 128.95117187500003)"><path d="M0.25 0.12 C131.47 -2.49, 263.99 -2.74, 503.31 0.17 M-0.01 0.26 C174.89 -1.42, 350.07 -1.27, 503.1 0.16 M502.3 0.95 C501.28 74.88, 502.11 148.55, 503.56 257.78 M502.48 0.79 C501.71 56.53, 502.76 114.32, 502.98 257.42 M502.32 258.65 C326.42 255.73, 150.43 255.81, -0.36 257.15 M502.54 258.19 C400.13 259.69, 296.82 259.88, 0.38 257.65 M1.32 258.44 C-0.11 180.88, -0.65 101.06, 1.38 -0.69 M0.21 257.44 C-1.11 188.11, -1.82 119.37, -0.68 -0.3" stroke="#000000" stroke-width="2" fill="none"></path></g><g transform="translate(104.5907118055556 183.66008843315916) rotate(0 106 140)"><text x="0" y="14" font-family="Virgil, Segoe UI Emoji" font-size="16px" fill="#000000" text-anchor="start" style="white-space: pre;" direction="ltr">component [ GameForm.js ]</text><text x="0" y="34" font-family="Virgil, Segoe UI Emoji" font-size="16px" fill="#000000" text-anchor="start" style="white-space: pre;" direction="ltr"></text><text x="0" y="54" font-family="Virgil, Segoe UI Emoji" font-size="16px" fill="#000000" text-anchor="start" style="white-space: pre;" direction="ltr">props: createGame()</text><text x="0" y="74" font-family="Virgil, Segoe UI Emoji" font-size="16px" fill="#000000" text-anchor="start" style="white-space: pre;" direction="ltr"></text><text x="0" y="94" font-family="Virgil, Segoe UI Emoji" font-size="16px" fill="#000000" text-anchor="start" style="white-space: pre;" direction="ltr">GameForm()</text><text x="0" y="114" font-family="Virgil, Segoe UI Emoji" font-size="16px" fill="#000000" text-anchor="start" style="white-space: pre;" direction="ltr"></text><text x="0" y="134" font-family="Virgil, Segoe UI Emoji" font-size="16px" fill="#000000" text-anchor="start" style="white-space: pre;" direction="ltr">name</text><text x="0" y="154" font-family="Virgil, Segoe UI Emoji" font-size="16px" fill="#000000" text-anchor="start" style="white-space: pre;" direction="ltr">playingTime</text><text x="0" y="174" font-family="Virgil, Segoe UI Emoji" font-size="16px" fill="#000000" text-anchor="start" style="white-space: pre;" direction="ltr">minNumPlayers</text><text x="0" y="194" font-family="Virgil, Segoe UI Emoji" font-size="16px" fill="#000000" text-anchor="start" style="white-space: pre;" direction="ltr">maxNumPlayers</text><text x="0" y="214" font-family="Virgil, Segoe UI Emoji" font-size="16px" fill="#000000" text-anchor="start" style="white-space: pre;" direction="ltr"></text><text x="0" y="234" font-family="Virgil, Segoe UI Emoji" font-size="16px" fill="#000000" text-anchor="start" style="white-space: pre;" direction="ltr">submit..</text><text x="0" y="254" font-family="Virgil, Segoe UI Emoji" font-size="16px" fill="#000000" text-anchor="start" style="white-space: pre;" direction="ltr"></text><text x="0" y="274" font-family="Virgil, Segoe UI Emoji" font-size="16px" fill="#000000" text-anchor="start" style="white-space: pre;" direction="ltr"></text></g><g stroke-linecap="round"><g transform="translate(104.95963541666666 213.3441162109371) rotate(0 110.11568140307443 -0.5400202320045082)"><path d="M-0.34 0.29 C36.2 0, 181.89 -1.32, 218.35 -1.37 M1.69 -0.6 C38.68 -0.79, 184.05 0.01, 220.57 -0.23" stroke="#000000" stroke-width="2" fill="none"></path></g></g><g stroke-linecap="round" transform="translate(49.539496527777885 78.91573079427047) rotate(0 283.67209201388886 358.4871961805556)"><path d="M-0.61 0.35 C182.51 -2.29, 365.01 -0.9, 566.97 0.78 M0.09 0.06 C114.23 -0.54, 228.73 -1.03, 567.08 0.38 M566.71 -0.36 C564.03 181.18, 564.42 364.66, 566.72 717.55 M567.36 0.38 C565.83 281.09, 566.39 562.12, 567.67 717.11 M567.43 717.66 C344.64 718.04, 123.36 717.7, 0.21 716.51 M567.13 716.64 C342.95 717.45, 118.75 716.79, 0.2 717.28 M-0.64 717.27 C2.63 464.31, 2.44 213.01, -0.12 -0.11 M0.14 717.3 C2.79 546.49, 2.44 376.55, 0.35 -0.03" stroke="#000000" stroke-width="4" fill="none"></path></g><g transform="translate(76.93272569444449 90.56243218315936) rotate(0 158 12.500000000000014)"><text x="0" y="18" font-family="Virgil, Segoe UI Emoji" font-size="20px" fill="#000000" text-anchor="start" style="white-space: pre;" direction="ltr">container [ GamesContainer.js ]</text></g><g stroke-linecap="round"><g transform="translate(107.21874999999997 293.35413953993015) rotate(0 225.9582489961851 -0.36129978878631164)"><path d="M0 0 C75.32 -0.12, 376.6 -0.6, 451.92 -0.72 M0 0 C75.32 -0.12, 376.6 -0.6, 451.92 -0.72" stroke="#000000" stroke-width="2" fill="none"></path></g></g><g transform="translate(82.23003472222221 136.40014648437466) rotate(0 248.5 12.5)"><text x="0" y="18" font-family="Virgil, Segoe UI Emoji" font-size="20px" fill="#000000" text-anchor="start" style="white-space: pre;" direction="ltr">state: games  props: createGame()  deleteGame()</text></g><g stroke-linecap="round" transform="translate(80.76171875 448.79082573784666) rotate(0 249.38151041666677 74.75911458333331)"><path d="M-0.06 -0.63 C186.06 -0.1, 372.02 -0.09, 497.97 -0.54 M-0.24 0.2 C165.65 -0.6, 331.45 0.07, 498.58 -0.36 M496.88 -1.9 C496.67 41.21, 496.02 79.95, 500.6 148.64 M498.14 0.04 C499.6 50.71, 499.66 101.85, 499.68 150.44 M498.42 149.26 C320.74 150.63, 141.47 150.78, 0.77 148.77 M498.61 149.82 C345.23 147.47, 192.1 148.13, 0.21 149.17 M0.29 147.99 C1 110.5, 0.88 70.51, -1.25 -1.74 M0.76 148.88 C-0.64 96.2, 0.36 42.68, -0.06 -0.26" stroke="#000000" stroke-width="2" fill="none"></path></g><g transform="translate(88.56987847222229 465.98114691840254) rotate(0 107 50)"><text x="0" y="14" font-family="Virgil, Segoe UI Emoji" font-size="16px" fill="#000000" text-anchor="start" style="white-space: pre;" direction="ltr">component [ GameCard.js ]</text><text x="0" y="34" font-family="Virgil, Segoe UI Emoji" font-size="16px" fill="#000000" text-anchor="start" style="white-space: pre;" direction="ltr"></text><text x="0" y="54" font-family="Virgil, Segoe UI Emoji" font-size="16px" fill="#000000" text-anchor="start" style="white-space: pre;" direction="ltr">props: deleteGame()</text><text x="0" y="74" font-family="Virgil, Segoe UI Emoji" font-size="16px" fill="#000000" text-anchor="start" style="white-space: pre;" direction="ltr"></text><text x="0" y="94" font-family="Virgil, Segoe UI Emoji" font-size="16px" fill="#000000" text-anchor="start" style="white-space: pre;" direction="ltr"></text></g><g stroke-linecap="round" transform="translate(79.51171875 615.5367024739578) rotate(0 248.94531250000003 73.1944444444444)"><path d="M0.19 0.44 C167.23 -1.73, 335.4 -1.44, 498.68 0.26 M0.33 -0.37 C136.59 -0.63, 274.09 -0.78, 498.17 0.32 M499.2 -0.53 C498.65 58.46, 498.42 117.28, 497.91 148.15 M498.36 -0.73 C499.2 36.89, 499.92 72.91, 496.9 146.65 M497.2 145.79 C307.91 145.72, 118.66 145.41, -0.54 146.47 M498.07 146.59 C367.45 148.56, 237.02 147.85, 0.33 146.45 M-0.7 148.15 C-0.37 91.23, 1.62 38.38, -0.74 -1.42 M-0.16 145.69 C0.85 112.45, 1.97 77.7, 0.89 -0.03" stroke="#000000" stroke-width="2" fill="none"></path></g><g stroke-linecap="round"><g transform="translate(89.0386284722223 496.9845920138883) rotate(0 114.12184445175289 0.06197960492636412)"><path d="M-0.48 1.08 C37.24 1.08, 188.38 -0.71, 226.57 -0.96 M1.47 0.61 C39.52 0.83, 190.89 0.19, 228.73 0.23" stroke="#000000" stroke-width="2" fill="none"></path></g></g><g transform="translate(93.31597222222226 633.2636718749998) rotate(0 104.49999999999999 70)"><text x="0" y="14" font-family="Virgil, Segoe UI Emoji" font-size="16px" fill="#000000" text-anchor="start" style="white-space: pre;" direction="ltr">component [ GameGrid.js ]</text><text x="0" y="34" font-family="Virgil, Segoe UI Emoji" font-size="16px" fill="#000000" text-anchor="start" style="white-space: pre;" direction="ltr"></text><text x="0" y="54" font-family="Virgil, Segoe UI Emoji" font-size="16px" fill="#000000" text-anchor="start" style="white-space: pre;" direction="ltr">props: deleteGame()</text><text x="0" y="74" font-family="Virgil, Segoe UI Emoji" font-size="16px" fill="#000000" text-anchor="start" style="white-space: pre;" direction="ltr"></text><text x="0" y="94" font-family="Virgil, Segoe UI Emoji" font-size="16px" fill="#000000" text-anchor="start" style="white-space: pre;" direction="ltr">GameGrid()</text><text x="0" y="114" font-family="Virgil, Segoe UI Emoji" font-size="16px" fill="#000000" text-anchor="start" style="white-space: pre;" direction="ltr"></text><text x="0" y="134" font-family="Virgil, Segoe UI Emoji" font-size="16px" fill="#000000" text-anchor="start" style="white-space: pre;" direction="ltr"></text></g><g stroke-linecap="round"><g transform="translate(92.80674022187789 664.0786478372081) rotate(0 117.00925222767722 -1.0715684864256332)"><path d="M0 0 C39 -0.36, 195.02 -1.79, 234.02 -2.14 M0 0 C39 -0.36, 195.02 -1.79, 234.02 -2.14" stroke="#000000" stroke-width="2" fill="none"></path></g></g><g stroke-linecap="round"><g transform="translate(105.06076388888894 252.39474826388852) rotate(0 224.89503214799385 -1.1917046471602362)"><path d="M-0.73 -0.07 C74.08 -0.56, 373.35 -1.74, 448.28 -2.31 M1.09 -1.15 C76.32 -1.48, 376.05 -0.46, 450.52 -0.72" stroke="#000000" stroke-width="1" fill="none"></path></g></g><g stroke-linecap="round"><g transform="translate(85.71202006871204 542.4847141280766) rotate(0 226.131314765662 -0.9982771437847759)"><path d="M0.2 -0.38 C75.95 -0.47, 377.77 -1.57, 453.42 -1.58 M-1.16 -1.62 C74.57 -1.49, 376.87 -0.29, 452.72 -0.44" stroke="#000000" stroke-width="1" fill="none"></path></g></g><g stroke-linecap="round"><g transform="translate(89.35763888888894 706.3053385416663) rotate(0 222.11554654142356 -0.6453445520857031)"><path d="M1.02 0.87 C74.91 0.85, 370.34 0.05, 444.13 -0.47 M0.1 0.27 C73.83 -0.05, 369.72 -1.87, 443.57 -2.16" stroke="#000000" stroke-width="1" fill="none"></path></g></g><g stroke-linecap="round"><g transform="translate(74.99001736111111 125.40296766493026) rotate(0 247.99506055963383 -0.27611700279845763)"><path d="M0 0.86 C82.99 0.76, 414.78 -0.99, 497.45 -1.41 M-1.46 0.27 C81.46 0.44, 413.44 0.27, 496.76 0.14" stroke="#000000" stroke-width="2" fill="none"></path></g></g><g stroke-linecap="round" transform="translate(9.999999999999986 10.418023003471973) rotate(0 324.96744791666663 407.78211805555554)"><path d="M0.32 -1.19 C221.6 5.57, 444.15 3.44, 648.69 -1.04 M0.01 -0.44 C248.68 2.15, 495.96 2.44, 650.54 0.35 M650.64 -0.43 C648.6 314.33, 648.39 627.62, 649.19 816.06 M649.5 -0.35 C646.17 170.5, 646.8 341.42, 649.3 815.34 M649.19 815.96 C465.99 810.93, 279.47 810.91, -1.45 815.34 M650.31 815.95 C472.69 814.06, 296.15 813.78, -0.72 815.89 M-1.06 815.52 C3.85 593.99, 4.14 370.44, -1.28 0.65 M-0.35 815.42 C-0.5 606.18, -0.09 396.06, 0.05 -0.55" stroke="#000000" stroke-width="4" fill="none"></path></g><g transform="translate(22.75824652777775 19.881971571180458) rotate(0 54.5 17.5)"><text x="0" y="25" font-family="Virgil, Segoe UI Emoji" font-size="28px" fill="#000000" text-anchor="start" style="white-space: pre;" direction="ltr">CLIENT</text></g><g stroke-linecap="round"><g transform="translate(23.38541666666658 60.518256293402686) rotate(0 115.63498263888891 0.2651909722222143)"><path d="M0 0 C38.54 0.09, 192.72 0.44, 231.27 0.53 M0 0 C38.54 0.09, 192.72 0.44, 231.27 0.53" stroke="#000000" stroke-width="4" fill="none"></path></g></g><g stroke-linecap="round" transform="translate(803.240885416667 14.83398437499983) rotate(0 276.1666666666667 409.37174479166674)"><path d="M0.62 0.17 C188.24 -1.83, 378.81 0.03, 552.98 -1.6 M0.01 0.32 C170.52 -0.96, 342.15 -0.05, 552.91 0.79 M553.22 0.55 C554.08 184.46, 553.59 367.22, 552.74 820.32 M552.85 -0.5 C552.89 281.02, 553.36 561.69, 551.63 818.38 M553.6 817.4 C383.51 821.77, 212.34 823.66, 1.1 817.81 M552.37 819.53 C391.63 821.52, 230.68 822.26, 0.68 818.9 M-1.22 817.76 C-2.06 643.53, -2.74 467.23, 1.05 1.56 M0.6 818.64 C6.49 557.27, 5.8 294.59, 0.15 0.14" stroke="#000000" stroke-width="4" fill="none"></path></g><g transform="translate(824.7617187500002 26.598307291666487) rotate(0 53.5 17.5)"><text x="0" y="25" font-family="Virgil, Segoe UI Emoji" font-size="28px" fill="#000000" text-anchor="start" style="white-space: pre;" direction="ltr">SERVER</text></g><g stroke-linecap="round"><g transform="translate(824.6914062500002 68.52148437499989) rotate(0 243.654296875 -1.1666666666666714)"><path d="M0 0 C81.22 -0.39, 406.09 -1.94, 487.31 -2.33 M0 0 C81.22 -0.39, 406.09 -1.94, 487.31 -2.33" stroke="#000000" stroke-width="4" fill="none"></path></g></g><g stroke-linecap="round" transform="translate(1502.01171875 10) rotate(0 253.28776041666663 409.16666666666663)"><path d="M-1.56 -0.51 C145.3 -0.05, 289.53 -0.17, 507.61 0.47 M0.49 0.75 C170.65 0.73, 342.93 1.57, 506.01 -0.22 M507.65 0.26 C502.84 309.05, 503.94 619.03, 506.65 817.53 M506.49 0.74 C503.72 266.79, 503.89 534.27, 507.1 817.82 M507.23 817.1 C316.3 820.21, 124.94 820.92, 0.19 817.07 M506.94 819.09 C359.7 822.08, 210.73 822.01, -0.68 817.61 M-0.59 817.63 C4.05 621, 5.01 421.21, 0.52 1.15 M-0.05 817.87 C-3.35 635.98, -2.54 452.98, 0.74 -0.69" stroke="#000000" stroke-width="4" fill="none"></path></g><g transform="translate(141.33333333333348 27.824401855468807) rotate(0 48 12.5)"><text x="0" y="18" font-family="Virgil, Segoe UI Emoji" font-size="20px" fill="#000000" text-anchor="start" style="white-space: pre;" direction="ltr">[ App.js ]</text></g><g stroke-linecap="round" transform="translate(843.0286458333335 84.5197143554688) rotate(0 232.94140624999994 357.9023437500001)"><path d="M0.69 -0.2 C141.27 0.72, 283.13 0.11, 466.72 -0.08 M-0.17 0.43 C111.37 -1.45, 223.6 -1.57, 466.22 0.22 M465.73 0.07 C467.2 213.68, 466.8 428.1, 466.37 716.58 M465.75 0.11 C465.23 282.55, 465.33 565.31, 465.97 715.65 M466.11 715.17 C286.38 717.29, 108.93 717.75, -0.29 716.28 M466.16 715.87 C301.81 713.96, 137.42 714.18, 0.3 715.67 M-0.48 716.09 C0.62 484.31, 1.98 252.19, -0.12 -0.44 M-0.28 715.7 C-2.41 485.63, -2.63 256, -0.39 0.22" stroke="#000000" stroke-width="4" fill="none"></path></g><g stroke-linecap="round"><g transform="translate(355.2395833333335 165.07952837598475) rotate(0 -39.048525851321145 35.024542744797856)"><path d="M-0.43 -0.21 C-0.67 10.38, 11.81 50.74, -1.78 62.48 C-15.38 74.22, -68.59 69.06, -82 70.22 M1.55 -1.36 C1.21 8.96, 11.59 48.51, -2.51 60.64 C-16.6 72.77, -69.71 69.84, -83.01 71.41" stroke="#000000" stroke-width="2" fill="none"></path></g><g transform="translate(355.2395833333335 165.07952837598475) rotate(0 -39.048525851321145 35.024542744797856)"><path d="M-55.54 60.87 C-62.01 62.37, -70.95 65.11, -84.65 70.42 M-55.74 60.35 C-61.73 62.3, -66.95 65, -83.08 72.29" stroke="#000000" stroke-width="2" fill="none"></path></g><g transform="translate(355.2395833333335 165.07952837598475) rotate(0 -39.048525851321145 35.024542744797856)"><path d="M-54.82 81.37 C-61.31 77.25, -70.44 74.38, -84.65 70.42 M-55.01 80.86 C-61.26 78.48, -66.63 76.85, -83.08 72.29" stroke="#000000" stroke-width="2" fill="none"></path></g></g><g stroke-linecap="round"><g transform="translate(507.6067708333335 165.9025268554688) rotate(0 -112.97003477935846 175.71225276462084)"><path d="M0.42 0.54 C0.09 52.45, 37.79 252.94, -2.4 311.22 C-42.58 369.5, -200.99 343.75, -240.69 350.24 M-0.82 -0.22 C-1.31 51.89, 36.58 254.09, -3.59 312.63 C-43.76 371.17, -202.3 344.7, -241.81 351.04" stroke="#000000" stroke-width="2" fill="none"></path></g><g transform="translate(507.6067708333335 165.9025268554688) rotate(0 -112.97003477935846 175.71225276462084)"><path d="M-212.72 339.99 C-221.51 342.47, -230.19 345.31, -243.59 352.02 M-214.35 340.56 C-221.86 343.9, -229.96 347.61, -242.14 351.74" stroke="#000000" stroke-width="2" fill="none"></path></g><g transform="translate(507.6067708333335 165.9025268554688) rotate(0 -112.97003477935846 175.71225276462084)"><path d="M-212.71 360.51 C-221.47 357.56, -230.15 354.98, -243.59 352.02 M-214.34 361.08 C-221.74 358.52, -229.85 356.33, -242.14 351.74" stroke="#000000" stroke-width="2" fill="none"></path></g></g><g stroke-linecap="round"><g transform="translate(516.8196326945424 449.8947146560884) rotate(0 -115.3038694326651 115.59814002632731)"><path d="M-0.85 0.48 C-0.48 32.86, 43.94 156.26, 2.46 194.63 C-39.03 233, -207.72 224.46, -249.77 230.71 M0.91 -0.32 C1.04 31.72, 43.15 154.44, 1.21 193.08 C-40.72 231.72, -208.88 225.39, -250.72 231.52" stroke="#000000" stroke-width="2" fill="none"></path></g><g transform="translate(516.8196326945424 449.8947146560884) rotate(0 -115.3038694326651 115.59814002632731)"><path d="M-222.36 218.73 C-230.17 222.72, -242.48 226.41, -249.92 230.64 M-222.87 218.99 C-232 222.76, -240.84 226.35, -250.29 231.53" stroke="#000000" stroke-width="2" fill="none"></path></g><g transform="translate(516.8196326945424 449.8947146560884) rotate(0 -115.3038694326651 115.59814002632731)"><path d="M-221.19 239.22 C-229.43 236.61, -242.12 233.72, -249.92 230.64 M-221.71 239.47 C-231.07 236.83, -240.28 234.01, -250.29 231.53" stroke="#000000" stroke-width="2" fill="none"></path></g></g><g transform="translate(943.5989583333335 33.34783935546881) rotate(0 189.99999999999994 12.5)"><text x="0" y="18" font-family="Virgil, Segoe UI Emoji" font-size="20px" fill="#000000" text-anchor="start" style="white-space: pre;" direction="ltr">[ 'http://localhost:5000/api/games/' ]</text></g><g transform="translate(871.9739583333335 104.2775268554688) rotate(0 145.99999999999994 12.5)"><text x="0" y="18" font-family="Virgil, Segoe UI Emoji" font-size="20px" fill="#000000" text-anchor="start" style="white-space: pre;" direction="ltr">services [ GamesServices.js ]</text></g><g stroke-linecap="round"><g transform="translate(869.8567708333335 134.9025268554688) rotate(0 209.24332216641392 1.0874611340608737)"><path d="M1.05 0.82 C70.95 1.11, 348.98 1.76, 418.35 1.98 M0.14 0.21 C70.01 0.16, 347.63 0.36, 417.57 0.39" stroke="#000000" stroke-width="2" fill="none"></path></g></g><g transform="translate(887.4583333333335 165.6056518554688) rotate(0 78 140)"><text x="0" y="14" font-family="Virgil, Segoe UI Emoji" font-size="16px" fill="#000000" text-anchor="start" style="white-space: pre;" direction="ltr"></text><text x="0" y="34" font-family="Virgil, Segoe UI Emoji" font-size="16px" fill="#000000" text-anchor="start" style="white-space: pre;" direction="ltr">GameService()</text><text x="0" y="54" font-family="Virgil, Segoe UI Emoji" font-size="16px" fill="#000000" text-anchor="start" style="white-space: pre;" direction="ltr"></text><text x="0" y="74" font-family="Virgil, Segoe UI Emoji" font-size="16px" fill="#000000" text-anchor="start" style="white-space: pre;" direction="ltr"></text><text x="0" y="94" font-family="Virgil, Segoe UI Emoji" font-size="16px" fill="#000000" text-anchor="start" style="white-space: pre;" direction="ltr"></text><text x="0" y="114" font-family="Virgil, Segoe UI Emoji" font-size="16px" fill="#000000" text-anchor="start" style="white-space: pre;" direction="ltr">getGames()</text><text x="0" y="134" font-family="Virgil, Segoe UI Emoji" font-size="16px" fill="#000000" text-anchor="start" style="white-space: pre;" direction="ltr"></text><text x="0" y="154" font-family="Virgil, Segoe UI Emoji" font-size="16px" fill="#000000" text-anchor="start" style="white-space: pre;" direction="ltr"></text><text x="0" y="174" font-family="Virgil, Segoe UI Emoji" font-size="16px" fill="#000000" text-anchor="start" style="white-space: pre;" direction="ltr"></text><text x="0" y="194" font-family="Virgil, Segoe UI Emoji" font-size="16px" fill="#000000" text-anchor="start" style="white-space: pre;" direction="ltr">postGames(payload)</text><text x="0" y="214" font-family="Virgil, Segoe UI Emoji" font-size="16px" fill="#000000" text-anchor="start" style="white-space: pre;" direction="ltr"></text><text x="0" y="234" font-family="Virgil, Segoe UI Emoji" font-size="16px" fill="#000000" text-anchor="start" style="white-space: pre;" direction="ltr"></text><text x="0" y="254" font-family="Virgil, Segoe UI Emoji" font-size="16px" fill="#000000" text-anchor="start" style="white-space: pre;" direction="ltr"></text><text x="0" y="274" font-family="Virgil, Segoe UI Emoji" font-size="16px" fill="#000000" text-anchor="start" style="white-space: pre;" direction="ltr">deleteGame(id)</text></g><g stroke-linecap="round"><g transform="translate(871.7786458333335 212.8009643554688) rotate(0 190.26395681398458 -0.09908506308681808)"><path d="M0.7 0.91 C64.23 0.93, 317.42 0.71, 380.91 0.69 M-0.39 0.34 C63.04 -0.04, 316.51 -0.86, 380.16 -1.11" stroke="#000000" stroke-width="1" fill="none"></path></g></g><g stroke-linecap="round" transform="translate(876.8177083333335 242.0353393554688) rotate(0 192.12499999999994 27.859375)"><path d="M-0.88 -0.56 C144.21 -1.27, 288.62 0.37, 384.05 -0.01 M0.3 0.59 C98.74 -1.55, 197.5 -1.48, 384.62 0.42 M384.23 -1.38 C386.63 12.66, 384.72 26.82, 383.69 57.54 M385.01 0.15 C384.66 14.46, 383.95 28.63, 384.52 54.75 M383.27 56.83 C234.94 57.79, 84.42 57.34, 0.07 56.81 M384 55.75 C296.5 55.3, 209.53 55.16, -0.48 56.05 M1.49 54.33 C1.74 39.42, 0.7 25.51, 0.71 0.06 M0.34 56.38 C-0.4 44.05, -0.08 32.75, -0.27 0.57" stroke="#000000" stroke-width="2" fill="none"></path></g><g stroke-linecap="round" transform="translate(876.9192708333335 319.3869018554688) rotate(0 191.57031249999994 30.32421875)"><path d="M-0.5 -0.22 C130.15 -1.76, 258.6 -0.91, 383.42 0.83 M-0.47 0.22 C139.68 1.97, 279.83 1.64, 383.64 0.21 M383.57 -1.28 C381.87 19.13, 383.57 38.24, 381.66 59.06 M383.46 0.74 C383.43 22.14, 383.26 43.09, 382.99 61.54 M383.22 61.8 C284.84 61.39, 186.89 62.2, 0.07 60.39 M383.65 61.16 C271.65 59.96, 159.5 59.04, -0.07 60.92 M1.2 62.28 C-0.33 44.54, -0.75 28.16, -0.44 -0.8 M0.63 61.08 C-0.61 41.44, 0.34 22.76, -0.43 0.19" stroke="#000000" stroke-width="2" fill="none"></path></g><g stroke-linecap="round" transform="translate(876.5130208333335 404.0509643554688) rotate(0 191.61328124999994 25.500000000000057)"><path d="M0.63 0.08 C140.25 -0.43, 281.9 0.06, 382.11 -0.99 M0.03 0.26 C111.61 -0.5, 222.3 -0.74, 382.98 -0.08 M383.1 1.59 C383.52 14.36, 381.53 28.13, 384.15 52.46 M383.57 -0.18 C383.01 21.15, 383.69 40.01, 383.14 51.77 M382.1 50.18 C256.17 48.83, 130.54 50.79, -0.33 50.35 M383.72 50.85 C290.67 50.22, 198.84 50.83, 0.41 50.73 M0.55 50.86 C-0.61 39.6, -0.01 25.84, -0.01 -1.53 M-0.83 50.22 C-0.16 31.79, -1.09 12.86, -0.75 0.17" stroke="#000000" stroke-width="2" fill="none"></path></g><g stroke-linecap="round"><g transform="translate(97.98177083333354 391.3790893554688) rotate(0 226.99609374999997 0.2734375)"><path d="M0 0 C75.67 0.09, 378.33 0.46, 453.99 0.55 M0 0 C75.67 0.09, 378.33 0.46, 453.99 0.55" stroke="#000000" stroke-width="2" fill="none"></path></g></g><g stroke-linecap="round"><g transform="translate(275.66927083333354 713.0129129322693) rotate(0 282.61671793212184 -146.97137897004296)"><path d="M0.46 -15.29 C75.57 -17.11, 373.14 16.48, 450.56 -26.44 C527.97 -69.36, 445.76 -232.46, 464.93 -272.79 C484.1 -313.11, 548.91 -269.07, 565.6 -268.39 M-0.75 -15.91 C74.74 -17.67, 375.24 17.15, 452.82 -25.45 C530.41 -68.04, 445.91 -231.13, 464.77 -271.48 C483.63 -311.82, 548.93 -267.98, 565.98 -267.52" stroke="#000000" stroke-width="2" fill="none"></path></g><g transform="translate(275.66927083333354 713.0129129322693) rotate(0 282.61671793212184 -146.97137897004296)"><path d="M537.34 -268.19 C543.07 -265.18, 553.56 -266.88, 565.23 -267.95 M536.4 -266.01 C543.84 -267.68, 550.9 -266.28, 565.11 -266.72" stroke="#000000" stroke-width="2" fill="none"></path></g><g transform="translate(275.66927083333354 713.0129129322693) rotate(0 282.61671793212184 -146.97137897004296)"><path d="M543.88 -287.64 C547.78 -278.9, 556.36 -274.9, 565.23 -267.95 M542.94 -285.46 C548.76 -282.53, 554.27 -276.53, 565.11 -266.72" stroke="#000000" stroke-width="2" fill="none"></path></g></g><g stroke-linecap="round"><g transform="translate(274.5520833333335 537.785339355469) rotate(0 294.7424785208265 -56.19752427963812)"><path d="M-1.03 1.16 C71.32 4.75, 362.4 42.35, 434.96 20.71 C507.51 -0.93, 408.36 -103.76, 434.29 -128.68 C460.22 -153.6, 564.34 -128.94, 590.52 -128.81 M0.62 0.73 C72.75 4.01, 361.89 40.1, 434 18.72 C506.11 -2.65, 407.23 -103.06, 433.29 -127.5 C459.35 -151.94, 564.26 -127.98, 590.37 -127.93" stroke="#000000" stroke-width="2" fill="none"></path></g><g transform="translate(274.5520833333335 537.785339355469) rotate(0 294.7424785208265 -56.19752427963812)"><path d="M563.14 -120.9 C572.41 -123.97, 582.24 -127.08, 589.63 -127.79 M560.5 -120.16 C571.95 -124.38, 581.8 -124.98, 589.38 -127.33" stroke="#000000" stroke-width="2" fill="none"></path></g><g transform="translate(274.5520833333335 537.785339355469) rotate(0 294.7424785208265 -56.19752427963812)"><path d="M565.43 -141.3 C573.72 -136.89, 582.7 -132.52, 589.63 -127.79 M562.79 -140.56 C573.62 -137.81, 582.69 -131.47, 589.38 -127.33" stroke="#000000" stroke-width="2" fill="none"></path></g></g><g stroke-linecap="round"><g transform="translate(187.41927083333346 410.8322143554688) rotate(0 339.7006893999902 -26.01267793819835)"><path d="M-0.53 0.82 C77.6 2.63, 383.16 21.66, 468.02 11.32 C552.88 0.99, 473.35 -49.18, 508.63 -61.19 C543.91 -73.2, 651.1 -60.78, 679.68 -60.73 M1.4 0.21 C79.96 1.61, 385.28 19.45, 470.22 9.41 C555.15 -0.64, 476.05 -48.54, 511 -60.07 C545.95 -71.6, 651.96 -59.65, 679.93 -59.77" stroke="#000000" stroke-width="2" fill="none"></path></g><g transform="translate(187.41927083333346 410.8322143554688) rotate(0 339.7006893999902 -26.01267793819835)"><path d="M652.62 -52.62 C658.65 -54.6, 664.15 -55, 679.5 -59.07 M652.02 -51.98 C659.42 -54.11, 667.1 -54.79, 680.06 -60.15" stroke="#000000" stroke-width="2" fill="none"></path></g><g transform="translate(187.41927083333346 410.8322143554688) rotate(0 339.7006893999902 -26.01267793819835)"><path d="M653.68 -73.11 C659.54 -70.26, 664.8 -65.81, 679.5 -59.07 M653.08 -72.47 C660.13 -69.23, 667.53 -64.54, 680.06 -60.15" stroke="#000000" stroke-width="2" fill="none"></path></g></g><g transform="translate(1527.2239583333333 32.15252685546881) rotate(0 78 17.5)"><text x="0" y="25" font-family="Virgil, Segoe UI Emoji" font-size="28px" fill="#000000" text-anchor="start" style="white-space: pre;" direction="ltr">DATABASE</text></g><g transform="translate(1695.4505208333333 37.80877685546881) rotate(0 63.5 12.5)"><text x="0" y="18" font-family="Virgil, Segoe UI Emoji" font-size="20px" fill="#000000" text-anchor="start" style="white-space: pre;" direction="ltr">[ MongoDB ]</text></g><g stroke-linecap="round"><g transform="translate(1522.7552083333333 69.2775268554688) rotate(0 232.8515625 -1.23828125)"><path d="M0 0 C77.62 -0.41, 388.09 -2.06, 465.7 -2.48 M0 0 C77.62 -0.41, 388.09 -2.06, 465.7 -2.48" stroke="#000000" stroke-width="4" fill="none"></path></g></g><g stroke-linecap="round" transform="translate(1527.4036458333333 92.7462768554688) rotate(0 226.66015625 350.28906250000006)"><path d="M0 0 C108.46 0, 216.92 0, 453.32 0 M0 0 C142.17 0, 284.33 0, 453.32 0 M453.32 0 C453.32 154.04, 453.32 308.08, 453.32 700.58 M453.32 0 C453.32 206.07, 453.32 412.15, 453.32 700.58 M453.32 700.58 C338.5 700.58, 223.68 700.58, 0 700.58 M453.32 700.58 C295.16 700.58, 137 700.58, 0 700.58 M0 700.58 C0 473.56, 0 246.54, 0 0 M0 700.58 C0 495.5, 0 290.43, 0 0" stroke="#000000" stroke-width="4" fill="none"></path></g><g stroke-linecap="round" transform="translate(859.9114583333335 163.5040893554688) rotate(0 212.54296874999994 300.62890625000006)"><path d="M-0.46 -0.41 C145.11 0.76, 290.29 -0.64, 425.18 0.43 M0.46 0.28 C129.79 -0.68, 259.78 -0.83, 424.84 -0.48 M425.1 -0.46 C424.5 162.98, 424.53 325.22, 425.83 600.72 M425 0.06 C423.24 135.08, 422.67 270.91, 425.09 601.22 M424.37 601.24 C333.72 602.13, 242.23 603.78, -0.47 601.1 M425.35 600.98 C314.38 599.14, 204.1 599.41, 0.28 601.01 M0.01 601.03 C1.57 470.15, 0.66 338.63, -0.22 -0.42 M-0.29 601.52 C-1.61 369.68, -1.55 137.84, 0.21 -0.17" stroke="#000000" stroke-width="2" fill="none"></path></g><g transform="translate(1551.1770833333333 100.6681518554688) rotate(0 30 12.5)"><text x="0" y="18" font-family="Virgil, Segoe UI Emoji" font-size="20px" fill="#000000" text-anchor="start" style="white-space: pre;" direction="ltr">server</text></g><g stroke-linecap="round"><g transform="translate(1546.4348958333333 132.6056518554688) rotate(0 210.34770899471835 -0.9156941050032117)"><path d="M0.13 0.02 C70.13 0.09, 349.41 0.02, 419.61 0.03 M-1.26 -1.02 C69.16 -1.28, 351.56 -1.72, 421.96 -1.89" stroke="#000000" stroke-width="2" fill="none"></path></g></g><g stroke-linecap="round" transform="translate(1550.7317708333333 156.7775268554688) rotate(0 203.28515625 87.08203125)"><path d="M0.11 -0.35 C126.05 0, 253.58 0.38, 405.78 -0.2 M0.25 0.33 C141.86 0.65, 284.34 0.8, 406.22 -0.2 M405.08 -1.34 C405.34 63.55, 404.11 129.82, 406.3 174.2 M406.13 -0.72 C406.15 54.27, 404.98 108.9, 407.41 173.71 M407.48 173.24 C271.27 173.77, 137.34 173.36, 0.82 173.32 M406.93 174.46 C319.13 174.42, 231.99 174.93, 0.48 174.63 M1.4 173.51 C0.45 125.22, 1.59 75.88, -1.16 1.32 M-0.58 174.79 C0.7 136.42, 0.59 96.98, -0.04 -0.39" stroke="#000000" stroke-width="2" fill="none"></path></g><g transform="translate(1568.2708333333333 168.8400268554688) rotate(0 83.5 80)"><text x="0" y="14" font-family="Virgil, Segoe UI Emoji" font-size="16px" fill="#000000" text-anchor="start" style="white-space: pre;" direction="ltr">seeds.js</text><text x="0" y="34" font-family="Virgil, Segoe UI Emoji" font-size="16px" fill="#000000" text-anchor="start" style="white-space: pre;" direction="ltr"></text><text x="0" y="54" font-family="Virgil, Segoe UI Emoji" font-size="16px" fill="#000000" text-anchor="start" style="white-space: pre;" direction="ltr"></text><text x="0" y="74" font-family="Virgil, Segoe UI Emoji" font-size="16px" fill="#000000" text-anchor="start" style="white-space: pre;" direction="ltr">use games_hub</text><text x="0" y="94" font-family="Virgil, Segoe UI Emoji" font-size="16px" fill="#000000" text-anchor="start" style="white-space: pre;" direction="ltr"></text><text x="0" y="114" font-family="Virgil, Segoe UI Emoji" font-size="16px" fill="#000000" text-anchor="start" style="white-space: pre;" direction="ltr">db.games.insertMany()</text><text x="0" y="134" font-family="Virgil, Segoe UI Emoji" font-size="16px" fill="#000000" text-anchor="start" style="white-space: pre;" direction="ltr"></text><text x="0" y="154" font-family="Virgil, Segoe UI Emoji" font-size="16px" fill="#000000" text-anchor="start" style="white-space: pre;" direction="ltr"></text></g><g stroke-linecap="round"><g transform="translate(1568.5442708333333 203.4806518554688) rotate(0 183.62829083459917 -1.10384757369755)"><path d="M-0.81 -0.02 C60.19 -0.43, 304.44 -1.99, 365.78 -2.19 M0.96 -1.07 C62.36 -1.38, 307.09 -1.29, 368.07 -1.09" stroke="#000000" stroke-width="2" fill="none"></path></g></g><g stroke-linecap="round" transform="translate(1554.4817708333333 356.0431518554688) rotate(0 198.27734375 198.91796875000006)"><path d="M0.35 0.47 C116.69 -0.7, 233.87 -0.24, 396.53 -0.21 M-0.55 0.28 C107.57 -2.31, 216.25 -1.44, 396.57 -0.36 M395.6 0.43 C398.11 127.17, 398.03 255.46, 396.4 397.82 M396.93 0.2 C398.69 99.61, 398.25 198.39, 396.46 398.29 M396.94 398.66 C289.32 395, 181.45 394.87, 1.07 397.97 M397.07 398.08 C289.15 397.45, 181.88 397.77, 0.1 397.55 M-0.68 398.28 C-0.14 259.05, -0.5 119.91, -0.92 -0.71 M-0.54 397.86 C-1.2 240.55, -1.14 83.07, 0.26 0.57" stroke="#000000" stroke-width="2" fill="none"></path></g><g transform="translate(1578.9270833333333 375.7228393554688) rotate(0 66.5 100)"><text x="0" y="14" font-family="Virgil, Segoe UI Emoji" font-size="16px" fill="#000000" text-anchor="start" style="white-space: pre;" direction="ltr">create_router.js</text><text x="0" y="34" font-family="Virgil, Segoe UI Emoji" font-size="16px" fill="#000000" text-anchor="start" style="white-space: pre;" direction="ltr"></text><text x="0" y="54" font-family="Virgil, Segoe UI Emoji" font-size="16px" fill="#000000" text-anchor="start" style="white-space: pre;" direction="ltr"></text><text x="0" y="74" font-family="Virgil, Segoe UI Emoji" font-size="16px" fill="#000000" text-anchor="start" style="white-space: pre;" direction="ltr">router.get()</text><text x="0" y="94" font-family="Virgil, Segoe UI Emoji" font-size="16px" fill="#000000" text-anchor="start" style="white-space: pre;" direction="ltr"></text><text x="0" y="114" font-family="Virgil, Segoe UI Emoji" font-size="16px" fill="#000000" text-anchor="start" style="white-space: pre;" direction="ltr">router.get(id)</text><text x="0" y="134" font-family="Virgil, Segoe UI Emoji" font-size="16px" fill="#000000" text-anchor="start" style="white-space: pre;" direction="ltr"></text><text x="0" y="154" font-family="Virgil, Segoe UI Emoji" font-size="16px" fill="#000000" text-anchor="start" style="white-space: pre;" direction="ltr">router.delete(id)</text><text x="0" y="174" font-family="Virgil, Segoe UI Emoji" font-size="16px" fill="#000000" text-anchor="start" style="white-space: pre;" direction="ltr"></text><text x="0" y="194" font-family="Virgil, Segoe UI Emoji" font-size="16px" fill="#000000" text-anchor="start" style="white-space: pre;" direction="ltr">router.put(id)</text></g><g stroke-linecap="round"><g transform="translate(1576.8723958333333 412.6994018554688) rotate(0 177.3296875633905 -1.914764787256729)"><path d="M0.84 -0.25 C59.95 -0.69, 295.85 -2.98, 354.84 -3.58 M-0.18 -1.42 C58.72 -1.59, 294.68 -1.86, 353.66 -2.07" stroke="#000000" stroke-width="2" fill="none"></path></g></g><g stroke-linecap="round"><g transform="translate(991.5754657440868 272.829651957987) rotate(0 286.20808809382294 85.63742923448336)"><path d="M-0.81 1.15 C66.77 0.78, 328.19 -29.36, 404.45 -1.38 C480.7 26.6, 428.59 139.58, 456.72 169.03 C484.85 198.49, 553.53 174.18, 573.23 175.34 M0.96 0.7 C68.54 0.46, 327.99 -28.06, 403.81 0.17 C479.63 28.4, 427.66 140.76, 455.86 170.07 C484.06 199.37, 553.36 174.97, 573.03 176.01" stroke="#000000" stroke-width="2" fill="none"></path></g><g transform="translate(991.5754657440868 272.829651957987) rotate(0 286.20808809382294 85.63742923448336)"><path d="M548.31 190.87 C551.98 186.86, 556.62 182.8, 571.63 177.39 M545.8 189.21 C555.02 185.16, 561.42 182.39, 573.51 176.82" stroke="#000000" stroke-width="2" fill="none"></path></g><g transform="translate(991.5754657440868 272.829651957987) rotate(0 286.20808809382294 85.63742923448336)"><path d="M545.61 170.53 C549.99 170.81, 555.2 171.03, 571.63 177.39 M543.1 168.87 C552.96 170.63, 560.13 173.66, 573.51 176.82" stroke="#000000" stroke-width="2" fill="none"></path></g></g><g stroke-linecap="round"><g transform="translate(1441.2630208333333 429.8478393554688) rotate(0 60.43237499999998 33.00566601562508)"><path d="M0 0 C1.39 10.46, -12.32 53.15, 8.34 62.74 C29.01 72.33, 104.71 58.41, 123.98 57.54 M0 0 C1.39 10.46, -12.32 53.15, 8.34 62.74 C29.01 72.33, 104.71 58.41, 123.98 57.54" stroke="#000000" stroke-width="2" fill="none"></path></g><g transform="translate(1441.2630208333333 429.8478393554688) rotate(0 60.43237499999998 33.00566601562508)"><path d="M97.11 70.88 C106.82 66.06, 116.53 61.24, 123.98 57.54 M97.11 70.88 C105.46 66.73, 113.81 62.59, 123.98 57.54" stroke="#000000" stroke-width="2" fill="none"></path></g><g transform="translate(1441.2630208333333 429.8478393554688) rotate(0 60.43237499999998 33.00566601562508)"><path d="M94.83 50.49 C105.36 53.04, 115.9 55.58, 123.98 57.54 M94.83 50.49 C103.89 52.68, 112.95 54.87, 123.98 57.54" stroke="#000000" stroke-width="2" fill="none"></path></g></g><g stroke-linecap="round"><g transform="translate(1052.5671917745449 353.9978111508539) rotate(0 252.5377505023897 103.41702765570358)"><path d="M0.43 1.48 C57.72 -0.31, 285.58 -45.63, 343.27 -10.58 C400.95 24.47, 319.44 173.82, 346.55 211.8 C373.65 249.78, 478.99 216.14, 505.87 217.32 M-0.8 1.04 C56.46 -0.63, 285.04 -44.88, 342.86 -9.59 C400.68 25.7, 319.02 174.88, 346.13 212.78 C373.23 250.68, 478.73 216.7, 505.51 217.82" stroke="#000000" stroke-width="2" fill="none"></path></g><g transform="translate(1052.5671917745449 353.9978111508539) rotate(0 252.5377505023897 103.41702765570358)"><path d="M480.87 233.49 C484.25 229.1, 491.94 222.38, 503.6 219.21 M479.75 231.12 C487.58 226.24, 496.46 222.64, 505.89 218.53" stroke="#000000" stroke-width="2" fill="none"></path></g><g transform="translate(1052.5671917745449 353.9978111508539) rotate(0 252.5377505023897 103.41702765570358)"><path d="M478.11 213.16 C482.2 214.12, 490.61 212.78, 503.6 219.21 M476.99 210.79 C485.61 212.72, 495.41 215.96, 505.89 218.53" stroke="#000000" stroke-width="2" fill="none"></path></g></g><g stroke-linecap="round"><g transform="translate(1022.7864583333335 429.5431518554688) rotate(0 271.5699041293794 51.3361044789911)"><path d="M-1.04 0.66 C55.17 -2.1, 280.9 -35.2, 338.41 -15.51 C395.93 4.18, 309.84 99.78, 344.05 118.82 C378.27 137.85, 510.37 101.77, 543.71 98.71 M0.61 -0.04 C57.12 -2.17, 283.17 -34.08, 340.79 -14.58 C398.41 4.91, 312.45 97.91, 346.35 116.91 C380.24 135.91, 511.4 102.59, 544.18 99.39" stroke="#000000" stroke-width="2" fill="none"></path></g><g transform="translate(1022.7864583333335 429.5431518554688) rotate(0 271.5699041293794 51.3361044789911)"><path d="M519.25 113.24 C526.39 106.72, 540.02 103.45, 542.85 100.71 M517.48 113.87 C528.56 109.13, 538.73 103.43, 544.1 100.29" stroke="#000000" stroke-width="2" fill="none"></path></g><g transform="translate(1022.7864583333335 429.5431518554688) rotate(0 271.5699041293794 51.3361044789911)"><path d="M515.75 93.02 C524.45 94.54, 539.46 99.26, 542.85 100.71 M513.98 93.65 C526.25 96.6, 537.76 98.59, 544.1 100.29" stroke="#000000" stroke-width="2" fill="none"></path></g></g></svg>